<?xml version="1.0" encoding="utf-8"?>
<!-- Generator: Adobe Illustrator 25.4.1, SVG Export Plug-In . SVG Version: 6.00 Build 0)  -->
<svg version="1.0" id="Layer_1" xmlns="http://www.w3.org/2000/svg" xmlns:xlink="http://www.w3.org/1999/xlink" x="0px" y="0px"
	 viewBox="0 0 265.1 186.2" style="enable-background:new 0 0 265.1 186.2;" xml:space="preserve">
<style type="text/css">
	.st0{fill:#FFFFFF;}
</style>
<g id="Fill-3">
	<path class="st0" d="M67.2,60.5c-18,0-32.6,14.7-32.5,32.6c0,18,14.7,32.6,32.6,32.5c18,0,32.5-14.6,32.5-32.6
		C99.8,75.1,85.2,60.5,67.2,60.5C67.2,60.5,67.2,60.5,67.2,60.5"/>
	<path d="M67.2,126.3c-18.3,0-33.2-14.9-33.2-33.2c0-18.3,14.9-33.2,33.2-33.2c18.3,0,33.2,14.9,33.2,33.2
		C100.4,111.4,85.6,126.3,67.2,126.3z M67.2,61.1c-17.7,0-32,14.3-32,32c0,17.7,14.3,32,32,32c17.7,0,32-14.3,32-32c0,0,0,0,0-0.1
		C99.2,75.4,84.9,61.1,67.2,61.1C67.2,61.1,67.2,61.1,67.2,61.1L67.2,61.1z"/>
</g>
<g id="Fill-6">
	<path d="M78.3,103.1L65.6,81l1.7-2.8l14.4,25L78.3,103.1z M72.3,103.1l-9.8-16.9l1.7-2.8l11.2,19.7H72.3z M66.2,103.1l-6.8-11.6
		l1.7-2.9l8.3,14.4L66.2,103.1L66.2,103.1z M60,103.1l-3.6-6.3l1.7-2.9l5.2,9.1H60z M52.7,103.1l2.2-3.8l2.2,3.8H52.7z M50,75.5
		v23.6c0.2,9.5,8.1,17.1,17.7,16.9c9.2-0.2,16.6-7.6,16.9-16.9V75.5L50,75.5z"/>
</g>
<g id="Fill-8">
	<path d="M216.2,78.3v19.2h-5.3V68.1h7.4l7.1,18.1V68.1h5.4v29.4h-6.7L216.2,78.3z M201,97.5h5.9V68.1H201V97.5z M178.1,68.1h6.1
		v12.8l7.7-12.8h6.4l-8.5,13.5l8.5,15.9h-7.1l-7-14.3v14.3h-6.1L178.1,68.1z M168.2,91h-8.6l-1.6,6.5h-6.1l8.3-29.4h7.8l8.2,29.4
		h-6.4L168.2,91z M166.9,85.8l-3-12.1l-3.1,12.1H166.9z M134.1,68.1H150v5h-9.7v6.3h8.9v5.1h-8.9v7.8h9.7v5.2h-15.9V68.1z
		 M120.6,68.1c7.8,0,10.3,4.2,10.3,14.7s-2.4,14.7-10.3,14.7h-10V68.1H120.6z M116.7,92.5h2.8c4.6,0,5.1-2.7,5.1-9.7
		S124,73,119.5,73h-2.8V92.5z"/>
</g>
<g id="Fill-10">
	<path d="M119.9,113.7v-10.1c0-0.1,0.1-0.2,0.3-0.2c0.2-0.1,0.4-0.1,0.5-0.2c0.2,0,0.5-0.1,0.7-0.1c0.2,0,0.4-0.1,0.6-0.1
		c0.2,0,0.3,0.1,0.5,0.2c0.1,0.1,0.2,0.3,0.2,0.5v10.1c0,0.9-0.1,1.9-0.4,2.7c-0.2,0.7-0.6,1.3-1.1,1.8c-0.5,0.5-1.2,0.8-1.8,1
		c-0.9,0.2-1.8,0.3-2.7,0.3h-0.2c-0.9,0-1.7-0.1-2.6-0.3c-0.7-0.2-1.3-0.5-1.9-1c-0.5-0.5-0.9-1.1-1.1-1.8c-0.3-0.9-0.4-1.8-0.4-2.7
		v-10.2c0-0.1,0.1-0.2,0.2-0.2c0.2-0.1,0.4-0.1,0.6-0.2c0.2,0,0.4-0.1,0.7-0.1c0.2,0,0.4,0,0.6,0c0.2,0,0.3,0.1,0.5,0.2
		c0.1,0.1,0.2,0.3,0.2,0.5v9.9c0,0.5,0,1.1,0.1,1.6c0.1,0.8,0.7,1.5,1.4,1.7c0.5,0.1,1,0.2,1.6,0.2h0.2c0.5,0,1.1-0.1,1.6-0.2
		c0.4-0.1,0.7-0.3,1-0.6c0.3-0.3,0.4-0.7,0.5-1.1C119.8,114.8,119.9,114.3,119.9,113.7"/>
</g>
<g id="Fill-12">
	<path d="M135.2,114.7v-11.2c0-0.1,0.1-0.2,0.2-0.2c0.2-0.1,0.4-0.1,0.6-0.1c0.2,0,0.5,0,0.7-0.1c0.2-0.1,0.4-0.1,0.6-0.1
		c0.4,0,0.6,0.2,0.6,0.7V119c0,0.2-0.1,0.3-0.2,0.4c-0.1,0.1-0.3,0.2-0.5,0.2h-0.5c-0.2,0-0.4,0-0.6-0.1l-0.5-0.1
		c-0.1,0-0.3-0.1-0.3-0.2l-7.2-11.1v11c0,0.2-0.1,0.3-0.2,0.4c-0.1,0.1-0.3,0.2-0.5,0.2c-0.2,0-0.4,0-0.5,0c-0.2,0-0.5,0-0.7-0.1
		l-0.6-0.1c-0.2-0.1-0.2-0.1-0.2-0.2v-15.7c0-0.1,0.1-0.2,0.2-0.3c0.2-0.1,0.4-0.1,0.6-0.1c0.2,0,0.4,0,0.6-0.1s0.4,0,0.6,0
		c0.2,0,0.3,0,0.4,0.1c0.1,0.1,0.2,0.2,0.3,0.3L135.2,114.7L135.2,114.7z"/>
</g>
<g id="Fill-14">
	<path d="M143.4,119c0,0.2-0.1,0.3-0.2,0.4c-0.1,0.1-0.3,0.2-0.5,0.2c-0.2,0-0.4,0-0.6,0c-0.2,0-0.5,0-0.7-0.1l-0.6-0.1
		c-0.2-0.1-0.2-0.1-0.2-0.2v-15.6c0-0.1,0.1-0.2,0.2-0.3c0.2-0.1,0.4-0.1,0.6-0.1c0.2,0,0.4,0,0.7-0.1s0.4,0,0.6,0
		c0.2,0,0.4,0,0.5,0.2c0.1,0.1,0.2,0.3,0.2,0.4V119L143.4,119z"/>
</g>
<g id="Fill-16">
	<path d="M152,115.1l3.4-11.5c0.2-0.2,0.4-0.3,0.7-0.4c0.3-0.1,0.6-0.1,0.9-0.1c0.2,0,0.3,0,0.5,0.1c0.1,0,0.3,0,0.4,0.1
		c0.1,0,0.2,0.1,0.2,0.2c0,0.1,0,0.3,0,0.4l-5.1,15.5c0,0.1-0.1,0.2-0.2,0.3c-0.1,0-0.3,0.1-0.4,0.1c-0.4,0-0.8,0-1.2-0.1
		c-0.3,0-0.6-0.1-0.6-0.3l-5.2-15.5c0-0.1,0-0.3,0-0.4c0.1-0.1,0.1-0.2,0.2-0.2l0.3-0.1c0.1,0,0.2,0,0.3,0c0.2,0,0.5,0,0.7,0
		c0.2,0,0.4,0,0.6,0.1c0.2,0,0.4,0.1,0.5,0.2c0.1,0.1,0.2,0.2,0.2,0.3l3.4,11.5c0,0.2,0.1,0.4,0.1,0.6c0.1,0.2,0,0.4,0.1,0.6
		c0-0.2,0-0.3,0-0.6C151.9,115.5,151.9,115.3,152,115.1"/>
</g>
<g id="Fill-18">
	<path d="M160.2,118.9v-15c0-0.2,0.1-0.3,0.2-0.4c0.2-0.1,0.3-0.1,0.5-0.1h8.9c0.2,0,0.3,0.1,0.4,0.2c0.1,0.1,0.2,0.3,0.2,0.5
		c0,0.2,0,0.3,0,0.5c0,0.2,0,0.4-0.1,0.6c0,0.2-0.1,0.3-0.1,0.5s-0.1,0.2-0.2,0.2h-7.1v4.3h6.1c0.1,0,0.3,0.1,0.4,0.2
		c0.1,0.1,0.2,0.3,0.2,0.4c0,0.2,0,0.3-0.1,0.5c0,0.2,0,0.4-0.1,0.6c0,0.2-0.1,0.3-0.1,0.5s-0.1,0.2-0.2,0.2h-6.2v4.6h6.9
		c0.2,0,0.3,0.1,0.4,0.2c0.1,0.1,0.2,0.3,0.2,0.5c0,0.2,0,0.3,0,0.5c0,0.2,0,0.4-0.1,0.6c0,0.2-0.1,0.3-0.1,0.5s-0.1,0.2-0.2,0.2
		h-8.8c-0.2,0-0.5,0-0.7-0.1C160.4,119.2,160.3,119.1,160.2,118.9"/>
</g>
<g id="Fill-20">
	<path d="M179,105.7h-3.1v5.4h3.1c0.5,0,1,0,1.5-0.1c0.3,0,0.6-0.2,0.8-0.4c0.2-0.2,0.4-0.4,0.4-0.7c0.1-0.4,0.1-0.8,0.1-1.2v-0.5
		c0-0.4,0-0.8-0.1-1.2c-0.1-0.3-0.2-0.5-0.4-0.8c-0.2-0.2-0.5-0.3-0.8-0.4C180,105.8,179.5,105.7,179,105.7 M173.2,119.2v-15.3
		c0-0.2,0.1-0.3,0.2-0.4c0.1-0.1,0.3-0.2,0.5-0.2h4.9c0.9,0,1.7,0.1,2.6,0.2c0.6,0.1,1.2,0.4,1.8,0.8c0.5,0.4,0.8,0.9,1,1.5
		c0.2,0.8,0.3,1.6,0.3,2.4v0.5c0,0.6,0,1.2-0.2,1.8c-0.1,0.5-0.3,0.9-0.5,1.3c-0.2,0.4-0.5,0.7-0.9,0.9c-0.4,0.2-0.9,0.4-1.4,0.5
		l3.1,5.3c0.1,0.2,0.2,0.4,0.2,0.6c0,0.1,0,0.2-0.1,0.2l-0.3,0.1c-0.1,0-0.2,0-0.3,0H184c-0.2,0-0.3,0-0.5,0c-0.2,0-0.4,0-0.6-0.1
		c-0.2,0-0.4-0.1-0.6-0.2c-0.2-0.1-0.3-0.2-0.4-0.3l-3.3-5.6h-2.7v5.6c0,0.2-0.1,0.3-0.2,0.4c-0.1,0.1-0.3,0.2-0.5,0.2
		c-0.2,0-0.4,0-0.5,0c-0.2,0-0.5,0-0.7-0.1l-0.6-0.1C173.3,119.4,173.3,119.3,173.2,119.2"/>
</g>
<g id="Fill-22">
	<path d="M187.6,116.9c0.2,0.1,0.4,0.1,0.5,0.1c0.3,0,0.6,0.1,0.9,0.2s0.7,0.1,1.1,0.2c0.8,0.1,1.6,0.1,2.3,0c0.3-0.1,0.7-0.2,1-0.3
		c0.3-0.2,0.5-0.4,0.7-0.6c0.2-0.3,0.3-0.6,0.3-1c0-0.5-0.2-1-0.5-1.3c-0.4-0.4-0.8-0.7-1.3-1c-0.6-0.4-1.1-0.7-1.7-1
		c-0.6-0.3-1.2-0.7-1.7-1.1c-0.5-0.4-1-1-1.3-1.6c-0.3-0.7-0.5-1.4-0.5-2.2c0-0.6,0.1-1.3,0.4-1.9c0.2-0.5,0.6-0.9,1.1-1.2
		c0.5-0.3,1.1-0.6,1.6-0.7c0.7-0.2,1.4-0.2,2.1-0.2c0.3,0,0.5,0,0.8,0c0.4,0,0.7,0,1.1,0.1l1.1,0.1c0.3,0,0.6,0.1,0.9,0.2
		c0.2,0.1,0.3,0.2,0.4,0.3c0,0.2,0.1,0.3,0.1,0.5c0,0.3-0.1,0.7-0.3,1c-0.1,0.2-0.3,0.4-0.6,0.3c-0.9-0.2-1.9-0.3-2.9-0.3
		c-0.8,0-1.5,0.1-2.2,0.4c-0.6,0.2-0.9,0.8-0.9,1.3c0,0.5,0.2,0.9,0.5,1.3c0.4,0.4,0.8,0.7,1.3,1c0.5,0.3,1.1,0.6,1.7,1
		c0.6,0.3,1.2,0.7,1.7,1.2c0.5,0.5,1,1,1.3,1.7c0.4,0.7,0.5,1.5,0.5,2.3c0,0.7-0.1,1.5-0.5,2.1c-0.3,0.5-0.8,1-1.3,1.3
		c-0.6,0.3-1.2,0.5-1.8,0.6c-0.7,0.1-1.4,0.2-2.1,0.2c-0.3,0-0.7,0-1.1,0c-0.4,0-0.7,0-1.1-0.1c-0.3,0-0.7-0.1-1-0.2
		c-0.3,0-0.5-0.1-0.8-0.2c-0.2,0-0.3-0.1-0.4-0.2c0-0.2,0-0.3,0-0.5c0-0.4,0.1-0.7,0.2-1.1C187.2,117,187.4,116.9,187.6,116.9"/>
</g>
<g id="Fill-24">
	<path d="M202.4,119c0,0.2-0.1,0.3-0.2,0.4c-0.1,0.1-0.3,0.2-0.5,0.2c-0.2,0-0.4,0-0.5,0c-0.2,0-0.5,0-0.7-0.1l-0.6-0.1
		c-0.2-0.1-0.2-0.1-0.2-0.2v-15.6c0-0.1,0.1-0.2,0.2-0.3c0.2-0.1,0.4-0.1,0.6-0.1c0.2,0,0.4,0,0.7-0.1s0.4,0,0.5,0
		c0.2,0,0.4,0.1,0.5,0.2c0.1,0.1,0.2,0.3,0.2,0.4V119L202.4,119z"/>
</g>
<g id="Fill-26">
	<path d="M212.1,105.8V119c0,0.2-0.1,0.3-0.2,0.4c-0.1,0.1-0.3,0.2-0.5,0.2c-0.2,0-0.4,0-0.6,0c-0.2,0-0.5,0-0.7-0.1l-0.6-0.1
		c-0.2-0.1-0.2-0.1-0.2-0.2v-13.5h-4.1c-0.2,0-0.3-0.1-0.4-0.2c-0.1-0.1-0.2-0.3-0.2-0.5c0-0.2,0-0.3,0-0.5c0-0.2,0-0.4,0.1-0.6
		c0-0.2,0.1-0.3,0.1-0.5s0.1-0.2,0.2-0.2h11c0.2,0,0.3,0.1,0.4,0.2c0.1,0.1,0.2,0.3,0.2,0.5c0,0.2,0,0.3,0,0.5c0,0.2,0,0.4-0.1,0.6
		c0,0.2-0.1,0.3-0.1,0.5s-0.1,0.2-0.2,0.2h-4.2V105.8z"/>
</g>
<g id="Group-30">
	<g id="Fill-28">
		<path d="M226.2,113.5v5.6c0,0.2-0.1,0.3-0.2,0.4c-0.1,0.1-0.3,0.2-0.5,0.2c-0.2,0-0.3,0-0.5,0c-0.2,0-0.4,0-0.6-0.1l-0.6-0.1
			c-0.2-0.1-0.2-0.1-0.2-0.3v-5.6l-4.9-9.4c-0.2-0.3-0.2-0.6-0.1-0.7s0.3-0.2,0.7-0.2h0.6c0.2,0,0.4,0,0.6,0l0.5,0.1
			c0.1,0,0.2,0.1,0.3,0.2l3.6,7.3l3.6-7.2c0.1-0.1,0.2-0.2,0.3-0.2l0.5-0.1c0.2,0,0.4,0,0.6,0h0.6c0.2,0,0.5,0.1,0.7,0.2
			c0.1,0.1,0.1,0.4-0.1,0.7L226.2,113.5z"/>
	</g>
</g>
</svg>
